<svg xmlns="http://www.w3.org/2000/svg" width="16px" height="16px" viewBox="0 0 2048 2048">
	<rect fill-opacity="0.6" x="128" y="128" width="1792" height="1792" rx="512" ry="512" fill="#0bb6f4"></rect>
	<g transform="scale(0.41)"><path fill-opacity="0.88" transform="translate(616.5, 2580) rotate(180) scale(-1, 1)" fill="#231f20" d="M1094 1085l-50 -254q-75 53 -162 80t-180 27q-94 0 -149 -35t-55 -94q0 -45 36.5 -72.5t165.5 -64.5l74 -21q128 -37 187 -107t59 -184q0 -182 -137.5 -285.5t-382.5 -103.5q-104 0 -207.5 17.5t-202.5 52.5l51 256q86 -56 181 -85.5t188 -29.5q110 0 171.5 37.5 t61.5 104.5q0 46 -30.5 72t-163.5 65l-88 24q-122 36 -179 105.5t-57 181.5q0 168 136 271.5t362 103.5q93 0 186 -15.5t185 -46.5z"></path><path fill-opacity="0.88" transform="translate(1849.5, 2580) rotate(180) scale(-1, 1)" fill="#231f20" d="M856 1196l-16 -76h344l-43 -225h-344l-174 -895h-293l174 895h-273l43 225h273l16 78q42 211 134 284.5t331 73.5h240l-43 -225h-230q-65 0 -94 -27.5t-45 -107.5z"></path><path fill-opacity="0.88" transform="translate(3082.5, 2580) rotate(180) scale(-1, 1)" fill="#231f20" d="M956 37q-77 -33 -158.5 -49.5t-164.5 -16.5q-226 0 -354.5 124t-128.5 339q0 317 183.5 515t479.5 198q98 0 183 -20.5t161 -63.5l-53 -268q-61 58 -129 86t-146 28q-170 0 -276.5 -124t-106.5 -322q0 -128 61 -191t185 -63q70 0 149.5 26t170.5 78z"></path></g>
</svg>